<?xml version="1.0" ?><!DOCTYPE svg  PUBLIC '-//W3C//DTD SVG 1.1//EN'  'http://www.w3.org/Graphics/SVG/1.1/DTD/svg11.dtd'><svg enable-background="new 0 0 512 512" id="Layer_1" version="1.1" viewBox="0 0 512 512" xml:space="preserve" xmlns="http://www.w3.org/2000/svg" xmlns:xlink="http://www.w3.org/1999/xlink"><g><path d="M257.1,6.2c138.1,0,249,112.5,248.3,253c-0.6,137.1-111.5,250-251.2,248.5C117.2,506.3,7.7,393.6,8.3,254.5   C8.9,118.3,120.8,6.2,257.1,6.2z M257,488.2c124.2,0.3,227.6-100.8,229-228.5C487.3,129.4,383.3,27,259.3,25.8   C133.5,24.6,28.9,126.5,28.2,254.6C27.4,384.5,129.6,488.2,257,488.2z" fill="#BF271B"/><path d="M269.7,229c0.4,4.5-0.2,9-1.9,13.2c-3.4,8.6-12.4,11.4-20.1,6.3c-3.4-2.2-6.1-5.2-8.3-8.5   c-24.1-38.1-48.2-76.1-72.2-114.3c-5.2-8.3-4-13.8,4.3-19.2c8.7-5.7,18.5-9.1,28.3-12.1c15.1-4.7,30.3-8.9,46.3-9.2   c9.5-0.1,14.2,3.9,15,13.4c1.8,22.9,3.3,45.8,4.9,68.7c1.3,18.6,2.5,37.2,3.7,55.8C269.8,225,269.7,227,269.7,229z" fill="#BF271B"/><path d="M268.2,380.1c0,12.5,0.1,25,0,37.5c-0.1,9.8-5.4,14.7-15.2,13.9c-15.7-1.2-30-6.9-44.2-13.3   c-5.3-2.4-10.5-5-15-8.8c-6.9-5.9-7.8-12.1-2.1-19.1c14.8-17.9,30-35.7,45-53.5c1.7-2,3.3-4.2,5.1-6.1c4.7-5.2,10.7-6.5,17.2-4.1   c6.5,2.4,10,7.4,10,14.6c0,13,0,26,0,39C268.7,380.1,268.5,380.1,268.2,380.1z" fill="#BF271B"/><path d="M297,325.3c0.4-11,10-18,20.1-14.7c23.8,7.8,47.6,15.6,71.4,23.6c11.2,3.8,13.9,10.5,8.9,21.3   c-8.5,18.1-21,33.1-36.1,45.9c-8.3,7.1-16,6-21.8-3.2c-13.5-21.5-26.8-43.2-40.2-64.9C297.8,330.8,296.8,328.1,297,325.3z" fill="#BF271B"/><path d="M397.6,248.4c-0.1,6.9-3,10.9-9.7,12.6c-21.6,5.5-43.2,10.7-64.8,16.1c-3.1,0.8-6.1,1.6-9.1,2.4   c-7.7,2-13.6-0.2-17.9-6.4c-4.2-6.1-4-11.7,0.9-18.3c14.6-19.8,29.1-39.7,43.7-59.4c7.3-9.9,14.2-10.6,23.2-2.1   c14.3,13.5,25.1,29.6,32.2,48c0.6,1.5,1,3.2,1.3,4.8C397.6,246.9,397.6,247.9,397.6,248.4z" fill="#BF271B"/><path d="M135.9,290.8c0.4-10.8,0.7-23.3,5.1-35.2c3.3-8.9,9.1-11.4,18.1-8.2c0.9,0.3,1.9,0.7,2.8,1.1   c22.6,9.2,45.2,18.4,67.8,27.6c7.2,2.9,10.5,8.2,10.1,15.5c-0.5,7.5-3.7,11.6-11.2,14c-24.1,7.6-47.9,15.9-72.2,22.8   c-9.7,2.7-15.8-0.8-18.2-10.6C136.1,309.5,135.8,301,135.9,290.8z" fill="#BF271B"/></g></svg>