<?xml version="1.0" ?><svg id="Layer_1" style="enable-background:new 0 0 100 100;" version="1.1" viewBox="0 0 100 100" xml:space="preserve" xmlns="http://www.w3.org/2000/svg" xmlns:xlink="http://www.w3.org/1999/xlink"><title/><style type="text/css">
	.st0{fill:#FFFFFF;}
	.st1{fill:#1B1464;}
	.st2{fill:#C1272D;}
	.st3{fill:none;}
</style><g><path class="st1" d="M33.9,33.9L49.9,6C25.7,6,6,25.7,6,49.9L33.9,33.9z"/></g><g><path class="st1" d="M66.1,66.1L50.1,94C74.3,94,94,74.3,94,50.1L66.1,66.1z"/></g><g><path class="st1" d="M66.1,33.9L94,49.9C94,25.7,74.3,6,50.1,6L66.1,33.9z"/></g><g><path class="st1" d="M33.9,66.1L6,50.1C6,74.3,25.7,94,49.9,94L33.9,66.1z"/></g><polygon class="st2" points="63.4,37.9 63.4,62.1 84.4,50 "/><polygon class="st2" points="62.1,37 50,16 37.9,37 "/><polygon class="st2" points="37.4,37.9 16.4,50 37.4,62.1 "/><polygon class="st2" points="37.9,63 50,84 62.1,63 "/></svg>