<?xml version="1.0" ?><!DOCTYPE svg  PUBLIC '-//W3C//DTD SVG 1.1//EN'  'http://www.w3.org/Graphics/SVG/1.1/DTD/svg11.dtd'><svg enable-background="new 0 0 96 96" height="96px" id="Layer_1" version="1.1" viewBox="0 0 96 96" width="96px" xml:space="preserve" xmlns="http://www.w3.org/2000/svg" xmlns:xlink="http://www.w3.org/1999/xlink"><g><path clip-rule="evenodd" d="M48,94.871C22.114,94.871,1.128,73.887,1.128,48   C1.128,22.114,22.114,1.128,48,1.128c25.887,0,46.871,20.985,46.871,46.871C94.871,73.887,73.887,94.871,48,94.871" fill="#4FA7A0" fill-rule="evenodd"/><path clip-rule="evenodd" d="M33.659,42.757c-0.061-0.062-0.119-0.127-0.174-0.196   c0.049,0.039,0.099,0.075,0.15,0.108L33.659,42.757z M54.041,27.132l37.711,37.706v0.002C84.987,82.406,67.951,94.871,48,94.871   l-25.501-25.59l35.076,0.002c1.672,1.598,3.966,2.863,6.628,3.621c0.047,0.014,0.094,0.012,0.137,0   c2.828-0.805,5.24-2.184,6.934-3.924c1.657-1.705,2.627-3.758,2.627-5.963v-9.078c0-0.543-1.209,0.055-1.535,0.117   c-0.4,0.076-0.816,0.115-1.244,0.115c-1.705,0-3.259-0.645-4.429-1.705c-1.183-1.07-1.976-2.564-2.14-4.242   C64.54,48.097,64.432,48,64.305,48V48h-0.066c-0.137,0-0.248,0.109-0.25,0.245c-0.17,1.669-0.961,3.156-2.139,4.222   c-1.17,1.061-2.723,1.705-4.428,1.705c-0.429,0-0.845-0.039-1.244-0.115c-0.414-0.08-0.813-0.197-1.193-0.348   c-0.127-0.051-0.273,0.012-0.323,0.139c-0.012,0.031-0.018,0.063-0.018,0.092h-0.001v1.42c-0.611-0.162-1.191-0.32-1.713-0.471   c-0.585-0.17-1.117-0.336-1.568-0.504c-0.251-0.41-0.412-1.02-0.514-1.693c-0.146-0.984-0.162-2.094-0.139-2.941   c1.202-1.821,2.248-4.181,3.043-7.081c0.562-0.367,0.961-1.034,1.24-1.8c0.402-1.1,0.564-2.417,0.611-3.317   c0.068-1.332-0.674-2.245-0.949-2.535c0.086-0.505,0.129-0.994,0.136-1.465c0.006-0.475-0.025-0.932-0.091-1.369   c0.422-0.289,0.711-0.635,0.878-1.019c0.178-0.41,0.214-0.858,0.122-1.326c-0.084-0.432-0.279-0.883-0.573-1.337L54.041,27.132z" fill="#38817B" fill-rule="evenodd"/><path d="   M32.998,35.103c0,0-1.044,0.928-0.967,2.437c0.078,1.508,0.484,4.196,1.818,4.97c4.203,15.487,15.484,15.487,19.686,0   c1.334-0.773,1.74-3.462,1.818-4.97c0.077-1.509-0.967-2.437-0.967-2.437c0.198-1.096,0.198-2.108,0.039-3.038   c-0.436,0.287-0.908,0.488-1.41,0.583l-0.029,0.005l-0.01,0.003l-0.02,0.003l-0.029,0.005l-0.029,0.004v0.001l-0.029,0.004   l-0.029,0.004l-0.02,0.003l-0.01,0.001l-0.029,0.004l-0.029,0.003l-0.01,0.001l-0.021,0.002l-0.03,0.003l-0.029,0.003   c-2.095,0.436-4.677-1.379-9.403-2.44l0,0l-0.227-0.05c-6.66-1.438-10.035,4.013-10.035,4.013c-0.02-0.146-0.037-0.289-0.051-0.431   l-0.001-0.007l0-0.007l-0.001-0.007C32.937,34.196,32.954,34.641,32.998,35.103z" fill="none" stroke="#FFFFFF" stroke-linecap="round" stroke-linejoin="round" stroke-miterlimit="22.9256" stroke-width="1.9998"/><path d="   M46.519,46.721c-1.367,1.403-4.1,1.415-5.497,0.047" fill="none" stroke="#FFFFFF" stroke-linecap="round" stroke-linejoin="round" stroke-miterlimit="22.9256" stroke-width="1.9999"/><path d="M37.086,49.91   c0.021,1.48-0.089,3.711-0.743,4.68c-3.481,1.314-11.93,2.631-13.205,5.027c-0.586,1.1-0.75,5.514-0.787,9.416h35.325   c-1.752-1.701-2.784-3.779-2.784-6.014v-7.336c-1.437-0.379-2.75-0.736-3.696-1.094c-0.711-1.055-0.779-3.422-0.734-4.918   C46.562,55.525,41.03,55.605,37.086,49.91z" fill="none" stroke="#FFFFFF" stroke-miterlimit="22.9256" stroke-width="1.9998"/><path d="M36.344,55.031   c0.621,1.002,2.772,5.063,7.352,7.299c3.559-1.615,6.05-4.324,7.5-7.299" fill="none" stroke="#FFFFFF" stroke-miterlimit="22.9256" stroke-width="1.9999"/><path d="   M45.372,36.385c0.527-0.244,1.277-0.397,2.108-0.397c0.748,0,1.429,0.124,1.942,0.326" fill="none" stroke="#FFFFFF" stroke-linecap="round" stroke-linejoin="round" stroke-miterlimit="22.9256" stroke-width="1.9999"/><path clip-rule="evenodd" d="M47.396,36.417c0.606,0,1.098,0.491,1.098,1.099   c0,0.605-0.492,1.098-1.098,1.098c-0.607,0-1.098-0.492-1.098-1.098C46.297,36.908,46.789,36.417,47.396,36.417" fill="#FFFFFF" fill-rule="evenodd"/><path d="   M42.015,36.385c-0.528-0.244-1.277-0.397-2.108-0.397c-0.747,0-1.428,0.124-1.941,0.326" fill="none" stroke="#FFFFFF" stroke-linecap="round" stroke-linejoin="round" stroke-miterlimit="22.9256" stroke-width="1.9999"/><path d="   M32.998,34.218c0,0,3.375-5.451,10.035-4.013c4.87,1.053,7.497,2.907,9.629,2.49c2.935-0.573,3.409-2.273,2.254-4.06   c-2.361-3.653-8.167-6.199-12.638-5.001C36.74,22.935,31.944,26.416,32.998,34.218z" fill="none" stroke="#FFFFFF" stroke-linecap="round" stroke-linejoin="round" stroke-miterlimit="22.9256" stroke-width="1.9998"/><polyline fill="none" points="   59.002,62.275 62.151,65.426 69.539,58.039  " stroke="#FFFFFF" stroke-linecap="round" stroke-linejoin="round" stroke-miterlimit="22.9256" stroke-width="1.9998"/><path d="   M64.304,48.25h-0.067c-0.34,3.464-3.262,6.171-6.816,6.171c-0.893,0-1.746-0.17-2.528-0.482v9.078c0,4.342,3.89,8.084,9.379,9.646   c5.489-1.563,9.379-5.305,9.379-9.646v-9.078c-0.782,0.313-1.636,0.482-2.529,0.482C67.566,54.422,64.645,51.715,64.304,48.25z" fill="none" stroke="#FFFFFF" stroke-linecap="round" stroke-linejoin="round" stroke-miterlimit="22.9256" stroke-width="1.9998"/><path clip-rule="evenodd" d="M39.989,36.328c0.656,0,1.188,0.531,1.188,1.188   c0,0.655-0.532,1.187-1.188,1.187s-1.188-0.531-1.188-1.187C38.802,36.859,39.333,36.328,39.989,36.328" fill="#FFFFFF" fill-rule="evenodd"/></g></svg>