<?xml version="1.0" ?><!DOCTYPE svg  PUBLIC '-//W3C//DTD SVG 1.1//EN'  'http://www.w3.org/Graphics/SVG/1.1/DTD/svg11.dtd'><svg enable-background="new 0 0 96 96" height="96px" id="Layer_1" version="1.1" viewBox="0 0 96 96" width="96px" xml:space="preserve" xmlns="http://www.w3.org/2000/svg" xmlns:xlink="http://www.w3.org/1999/xlink"><g><path clip-rule="evenodd" d="M48,94.871C22.113,94.871,1.129,73.887,1.129,48   C1.129,22.114,22.113,1.128,48,1.128c25.886,0,46.871,20.985,46.871,46.872C94.871,73.887,73.886,94.871,48,94.871" fill="#4FA7A0" fill-rule="evenodd"/><path clip-rule="evenodd" d="M92.938,61.35C88.19,77.357,75.127,89.787,58.753,93.631   l-0.088-0.094l-0.059-0.064c-0.115-0.102-0.229-0.211-0.337-0.33l-0.057-0.064c-0.116-0.102-0.229-0.211-0.338-0.33l-0.058-0.066   c-0.116-0.1-0.229-0.211-0.337-0.33l-0.058-0.063c-0.116-0.102-0.229-0.213-0.338-0.332l-0.058-0.064   c-0.116-0.102-0.229-0.211-0.337-0.33l-0.058-0.064c-0.116-0.102-0.229-0.213-0.337-0.332l-0.058-0.063   c-0.116-0.102-0.229-0.213-0.338-0.332l-0.058-0.064c-0.116-0.102-0.229-0.211-0.337-0.33l-0.058-0.064   c-0.116-0.102-0.229-0.211-0.338-0.33l-0.057-0.064c-0.116-0.102-0.229-0.211-0.338-0.332l-0.058-0.064   c-0.116-0.102-0.229-0.211-0.337-0.33l-0.058-0.064c-0.116-0.102-0.229-0.211-0.338-0.33l-0.057-0.064   c-0.116-0.102-0.229-0.211-0.338-0.33l-0.058-0.064c-0.116-0.102-0.229-0.213-0.337-0.332l-0.058-0.064   c-0.116-0.102-0.229-0.211-0.338-0.33l-0.056-0.063c-0.116-0.102-0.229-0.213-0.339-0.332l-0.058-0.064   c-0.116-0.102-0.229-0.213-0.338-0.33l-0.058-0.066c-0.116-0.1-0.229-0.211-0.337-0.33L51.5,86.363   c-0.116-0.102-0.229-0.213-0.338-0.332l-0.058-0.064c-0.116-0.102-0.229-0.211-0.338-0.33l-0.058-0.064   c-0.116-0.102-0.229-0.213-0.337-0.332l-0.057-0.063c-0.116-0.102-0.229-0.213-0.338-0.332l-0.059-0.064   c-0.115-0.102-0.228-0.211-0.337-0.33l-0.057-0.064c-0.116-0.102-0.229-0.211-0.338-0.33l-0.058-0.064   c-0.116-0.102-0.229-0.213-0.337-0.332l-0.059-0.064c-0.115-0.102-0.228-0.211-0.337-0.33l-0.057-0.063   c-0.116-0.104-0.229-0.213-0.338-0.332l-0.058-0.064c-0.116-0.102-0.229-0.211-0.337-0.33l-0.059-0.064   c-0.115-0.102-0.228-0.213-0.336-0.332l-0.058-0.063c-0.115-0.102-0.229-0.213-0.338-0.332l-0.058-0.064   c-0.116-0.102-0.229-0.211-0.337-0.33l-0.057-0.064c-0.116-0.102-0.229-0.211-0.339-0.332l-0.057-0.063   c-0.116-0.102-0.229-0.213-0.338-0.332l-0.058-0.064c-0.116-0.102-0.229-0.211-0.337-0.33l-0.059-0.064   c-0.115-0.102-0.229-0.211-0.337-0.33l-0.057-0.064c-0.116-0.102-0.229-0.211-0.338-0.33l-0.058-0.066   c-0.116-0.102-0.229-0.211-0.337-0.33l-0.059-0.064c-0.115-0.102-0.229-0.211-0.337-0.33l-0.057-0.064   c-0.116-0.102-0.229-0.211-0.338-0.33l-0.058-0.064c-0.116-0.102-0.229-0.213-0.337-0.332l-0.059-0.064   c-0.115-0.102-0.229-0.211-0.337-0.33l-0.057-0.063c-0.116-0.104-0.229-0.213-0.338-0.332l-0.058-0.064   c-0.116-0.102-0.229-0.211-0.338-0.33l-0.058-0.064c-0.115-0.102-0.229-0.213-0.337-0.332l-0.057-0.063   c-0.116-0.102-0.229-0.213-0.338-0.332l-0.058-0.064c-0.116-0.102-0.229-0.211-0.338-0.33l-0.057-0.064   c-0.116-0.102-0.229-0.211-0.338-0.33l-0.058-0.064c-0.116-0.102-0.229-0.213-0.337-0.332l-0.058-0.063   c-0.116-0.102-0.229-0.213-0.338-0.332l-0.057-0.064c-0.116-0.102-0.229-0.211-0.338-0.33l-0.058-0.064   c-0.116-0.102-0.229-0.213-0.338-0.33l-0.058-0.066c-0.116-0.102-0.229-0.211-0.337-0.33l-0.057-0.063   c-0.116-0.102-0.229-0.213-0.338-0.332l-0.058-0.064c-0.116-0.102-0.229-0.211-0.338-0.33l-0.058-0.064   c-0.116-0.102-0.229-0.213-0.337-0.332l-0.057-0.063c-0.116-0.102-0.229-0.213-0.338-0.332c-1.196-1.311-1.993-3.732-1.631-8.098   c0.246-2.967,0.417-4.52,0.781-7.82c0.128-1.156,0.28-2.537,0.508-4.639c0.418-3.875-0.265-6.074-1.018-8.499   c-0.868-2.793-1.837-5.912-1.071-12.708c0.009-0.078,0.041-0.141,0.087-0.188c0.085-0.085,0.226-0.15,0.398-0.193   c0.012-0.002,0.022-0.005,0.033-0.008c0.409-0.097,1.503-0.313,2.399-0.489c0.093-0.018,0.185-0.036,0.276-0.054v0.472l0.119-0.023   c0.092-0.018,0.184-0.036,0.275-0.054v0.473l0.119-0.023c0.092-0.018,0.184-0.036,0.275-0.054v0.473l0.119-0.023   c0.093-0.018,0.185-0.036,0.276-0.054v0.472l0.119-0.023c0.092-0.018,0.184-0.036,0.275-0.054v0.472l0.119-0.023   c0.092-0.018,0.184-0.036,0.275-0.054v0.473l0.063-0.012V23.82c5.363,0,10.727,0,16.089,0v0.395h0.396v0.395h0.395v0.395h0.395   V25.4h0.396v0.395h0.395v0.396h0.395v0.395h0.396v0.395H58.6v0.396h0.396v0.395h0.395v0.395h0.395v0.395h0.396v0.396h0.395v0.395   h0.395v0.395h0.396v0.396h0.395v0.395h0.395v0.395h0.396v0.395h0.395v0.395h0.396v0.395h0.395v0.395h0.395v0.396h0.396v0.395h0.395   v0.395h0.396v0.396h0.395v0.395h0.395v0.396h0.396v0.395h0.395v0.395h0.395v0.395h0.396v0.395h0.395v0.395h0.395v0.395h0.396v0.395   h0.395v0.395h0.395v0.395h0.396v0.395h0.395v0.395h0.395v0.395h0.396v0.395h0.395v0.396h0.396v0.395h0.395v0.395h0.395v0.395h0.396   v0.395h0.395v0.395H74v0.396h0.396v0.395h0.395v0.395h0.395v0.395h0.396v0.395h0.395v0.395h0.395v0.395h0.396v0.395h0.395v0.395   h0.395v0.396h0.396v0.395h0.395v0.396h0.396v0.395h0.395v0.395h0.395v0.396h0.396v0.395h0.395v0.395h0.395v0.395h0.396v0.396h0.395   v0.395h0.395v0.395h0.396v0.395h0.395v0.396h0.396v0.395h0.395v0.395h0.395v0.395h0.395v0.396h0.396v0.395h0.395v0.395h0.396v0.396   h0.395v0.395h0.395v0.395h0.396v0.395h0.395v0.396h0.396v0.395h0.395v0.395h0.395v0.395h0.396V57.4h0.395v0.395H89.4v0.395h0.396   v0.395h0.395v0.396h0.395v0.395h0.396v0.395h0.395v0.396h0.396v0.395h0.395v0.395h0.395v0.395H92.938z" fill="#669898" fill-rule="evenodd"/><path clip-rule="evenodd" d="M92.938,61.35L60.418,28.956V42.98v3.468v19.086   c0,0.016,0.007,0.029,0.017,0.039s0.025,0.018,0.041,0.018c0.017,0,0.032-0.006,0.042-0.016l-0.002-0.002   c0.01-0.01,0.017-0.023,0.017-0.039V47.629v-1.335l1.281,0.378c0.821,0.243,1.244,0.706,1.465,1.279   c0.184,0.473,0.181,0.922,0.177,1.372l-0.001,0.158v0.066l-0.002,0.029h0.002v22.607v0.004v0.002l-0.004,0.027   c-0.005,0.166-0.041,0.324-0.103,0.463l-0.004,0.008c-0.061,0.135-0.147,0.26-0.252,0.365l-0.013,0.012   c-0.105,0.105-0.229,0.191-0.365,0.254l-0.008,0.004c-0.138,0.061-0.294,0.098-0.463,0.102l-0.027,0.004h-0.003H62.21H39.034   c-0.157,0-0.319-0.004-0.485-0.014l20.204,20.217C75.127,89.787,88.19,77.357,92.938,61.35" fill="#38817B" fill-rule="evenodd"/><path d="   M55.921,27.327c0.475,0.102,2.79,0.398,3.263,0.514c0.652,0.16,1.23,0.563,1.23,1.23" fill="none" stroke="#FFFFFF" stroke-linecap="round" stroke-linejoin="round" stroke-miterlimit="2.6131" stroke-width="1.9998"/><line fill="none" stroke="#FFFFFF" stroke-linecap="round" stroke-linejoin="round" stroke-miterlimit="2.6131" stroke-width="1.9998" x1="60.414" x2="60.414" y1="29.071" y2="47.488"/><path d="   M60.414,47.488c3.066,0,2.872,1.514,2.872,2.959" fill="none" stroke="#FFFFFF" stroke-linecap="round" stroke-linejoin="round" stroke-miterlimit="2.6131" stroke-width="1.9998"/><line fill="none" stroke="#FFFFFF" stroke-linecap="round" stroke-linejoin="round" stroke-miterlimit="2.6131" stroke-width="1.9998" x1="63.286" x2="63.286" y1="50.447" y2="71.834"/><path d="   M63.286,71.834c0,0.674-0.557,1.23-1.23,1.23" fill="none" stroke="#FFFFFF" stroke-linecap="round" stroke-linejoin="round" stroke-miterlimit="2.6131" stroke-width="1.9998"/><line fill="none" stroke="#FFFFFF" stroke-linecap="round" stroke-linejoin="round" stroke-miterlimit="2.6131" stroke-width="1.9998" x1="62.056" x2="40.13" y1="73.064" y2="73.064"/><path d="   M40.13,73.064c-2.752,0-7.122-1.27-6.357-10.494c0.328-3.951,0.527-5.389,1.271-12.26c0.874-8.088-3.449-8.428-2.051-20.828   c0.074-0.664,0.578-1.072,1.23-1.232c0.677-0.167,2.892-0.585,3.568-0.728" fill="none" stroke="#FFFFFF" stroke-linecap="round" stroke-linejoin="round" stroke-miterlimit="2.6131" stroke-width="1.9998"/><line fill="none" stroke="#FFFFFF" stroke-linecap="round" stroke-linejoin="round" stroke-miterlimit="2.6131" stroke-width="1.9998" x1="60.414" x2="60.414" y1="44.208" y2="65.545"/><line fill="none" stroke="#FFFFFF" stroke-linecap="round" stroke-linejoin="round" stroke-miterlimit="2.6131" stroke-width="1.9998" x1="58.637" x2="58.637" y1="72.854" y2="71.705"/><path d="   M58.626,71.547c0-0.676-0.543-1.072-1.22-1.072" fill="none" stroke="#FFFFFF" stroke-linecap="round" stroke-linejoin="round" stroke-miterlimit="2.6131" stroke-width="1.9998"/><line fill="none" stroke="#FFFFFF" stroke-linecap="round" stroke-linejoin="round" stroke-miterlimit="2.6131" stroke-width="1.9998" x1="57.406" x2="41.361" y1="70.475" y2="70.475"/><path d="   M41.361,70.475c-0.677,0-1.231,0.555-1.231,1.23" fill="none" stroke="#FFFFFF" stroke-linecap="round" stroke-linejoin="round" stroke-miterlimit="2.6131" stroke-width="1.9998"/><line fill="none" stroke="#FFFFFF" stroke-linecap="round" stroke-linejoin="round" stroke-miterlimit="2.6131" stroke-width="1.9998" x1="40.13" x2="40.13" y1="71.705" y2="72.863"/><line fill="none" stroke="#FFFFFF" stroke-linecap="round" stroke-linejoin="round" stroke-miterlimit="2.6131" stroke-width="1.9998" x1="37.151" x2="56.507" y1="34.801" y2="34.801"/><path d="   M56.507,34.801c0.677,0,1.23,0.555,1.23,1.23" fill="none" stroke="#FFFFFF" stroke-linecap="round" stroke-linejoin="round" stroke-miterlimit="2.6131" stroke-width="1.9998"/><line fill="none" stroke="#FFFFFF" stroke-linecap="round" stroke-linejoin="round" stroke-miterlimit="2.6131" stroke-width="1.9998" x1="57.737" x2="57.737" y1="36.032" y2="42.579"/><path d="   M57.737,42.579c0,0.675-0.555,1.23-1.23,1.23" fill="none" stroke="#FFFFFF" stroke-linecap="round" stroke-linejoin="round" stroke-miterlimit="2.6131" stroke-width="1.9998"/><line fill="none" stroke="#FFFFFF" stroke-linecap="round" stroke-linejoin="round" stroke-miterlimit="2.6131" stroke-width="1.9998" x1="56.507" x2="39.118" y1="43.809" y2="43.809"/><path d="   M39.118,43.809c-0.675,0-1.423-0.652-1.773-1.23c-0.81-1.33-1.583-3.606-1.641-6.547c-0.014-0.676,0.771-1.23,1.447-1.23" fill="none" stroke="#FFFFFF" stroke-linecap="round" stroke-linejoin="round" stroke-miterlimit="2.6131" stroke-width="1.9998"/><line fill="none" stroke="#FFFFFF" stroke-linecap="round" stroke-linejoin="round" stroke-miterlimit="2.6131" stroke-width="1.9998" x1="38.854" x2="42.652" y1="47.92" y2="47.92"/><line fill="none" stroke="#FFFFFF" stroke-linecap="round" stroke-linejoin="round" stroke-miterlimit="2.6131" stroke-width="1.9998" x1="46.071" x2="49.871" y1="47.92" y2="47.92"/><line fill="none" stroke="#FFFFFF" stroke-linecap="round" stroke-linejoin="round" stroke-miterlimit="2.6131" stroke-width="1.9998" x1="52.856" x2="56.655" y1="47.92" y2="47.92"/><line fill="none" stroke="#FFFFFF" stroke-linecap="round" stroke-linejoin="round" stroke-miterlimit="2.6131" stroke-width="1.9998" x1="38.854" x2="42.652" y1="51.639" y2="51.639"/><line fill="none" stroke="#FFFFFF" stroke-linecap="round" stroke-linejoin="round" stroke-miterlimit="2.6131" stroke-width="1.9998" x1="46.071" x2="49.871" y1="51.639" y2="51.639"/><line fill="none" stroke="#FFFFFF" stroke-linecap="round" stroke-linejoin="round" stroke-miterlimit="2.6131" stroke-width="1.9998" x1="52.856" x2="56.655" y1="51.639" y2="51.639"/><line fill="none" stroke="#FFFFFF" stroke-linecap="round" stroke-linejoin="round" stroke-miterlimit="2.6131" stroke-width="1.9998" x1="38.854" x2="42.652" y1="55.357" y2="55.357"/><line fill="none" stroke="#FFFFFF" stroke-linecap="round" stroke-linejoin="round" stroke-miterlimit="2.6131" stroke-width="1.9998" x1="46.071" x2="49.871" y1="55.357" y2="55.357"/><line fill="none" stroke="#FFFFFF" stroke-linecap="round" stroke-linejoin="round" stroke-miterlimit="2.6131" stroke-width="1.9998" x1="52.856" x2="56.655" y1="55.357" y2="55.357"/><line fill="none" stroke="#FFFFFF" stroke-linecap="round" stroke-linejoin="round" stroke-miterlimit="2.6131" stroke-width="1.9998" x1="38.854" x2="42.652" y1="59.076" y2="59.076"/><line fill="none" stroke="#FFFFFF" stroke-linecap="round" stroke-linejoin="round" stroke-miterlimit="2.6131" stroke-width="1.9998" x1="46.071" x2="49.871" y1="59.076" y2="59.076"/><line fill="none" stroke="#FFFFFF" stroke-linecap="round" stroke-linejoin="round" stroke-miterlimit="2.6131" stroke-width="1.9998" x1="52.856" x2="56.655" y1="59.076" y2="59.076"/><line fill="none" stroke="#FFFFFF" stroke-linecap="round" stroke-linejoin="round" stroke-miterlimit="2.6131" stroke-width="1.9998" x1="53.316" x2="56.291" y1="62.77" y2="62.77"/><path d="   M56.291,62.77c0.201,0,0.365,0.164,0.365,0.363" fill="none" stroke="#FFFFFF" stroke-linecap="round" stroke-linejoin="round" stroke-miterlimit="2.6131" stroke-width="1.9998"/><line fill="none" stroke="#FFFFFF" stroke-linecap="round" stroke-linejoin="round" stroke-miterlimit="2.6131" stroke-width="1.9998" x1="56.656" x2="56.656" y1="63.133" y2="66.15"/><path d="   M56.656,66.15c0,0.199-0.164,0.363-0.365,0.363" fill="none" stroke="#FFFFFF" stroke-linecap="round" stroke-linejoin="round" stroke-miterlimit="2.6131" stroke-width="1.9998"/><line fill="none" stroke="#FFFFFF" stroke-linecap="round" stroke-linejoin="round" stroke-miterlimit="2.6131" stroke-width="1.9998" x1="56.291" x2="53.316" y1="66.514" y2="66.514"/><path d="   M53.316,66.514c-0.2,0-0.364-0.164-0.364-0.363" fill="none" stroke="#FFFFFF" stroke-linecap="round" stroke-linejoin="round" stroke-miterlimit="2.6131" stroke-width="1.9998"/><line fill="none" stroke="#FFFFFF" stroke-linecap="round" stroke-linejoin="round" stroke-miterlimit="2.6131" stroke-width="1.9998" x1="52.952" x2="52.952" y1="66.15" y2="63.133"/><path d="   M52.952,63.133c0-0.199,0.164-0.363,0.364-0.363" fill="none" stroke="#FFFFFF" stroke-linecap="round" stroke-linejoin="round" stroke-miterlimit="2.6131" stroke-width="1.9998"/><line fill="none" stroke="#FFFFFF" stroke-linecap="round" stroke-linejoin="round" stroke-miterlimit="2.6131" stroke-width="1.9998" x1="38.854" x2="42.652" y1="62.795" y2="62.795"/><line fill="none" stroke="#FFFFFF" stroke-linecap="round" stroke-linejoin="round" stroke-miterlimit="2.6131" stroke-width="1.9998" x1="46.071" x2="49.871" y1="62.795" y2="62.795"/><line fill="none" stroke="#FFFFFF" stroke-linecap="round" stroke-linejoin="round" stroke-miterlimit="2.6131" stroke-width="1.9998" x1="38.854" x2="42.652" y1="66.514" y2="66.514"/><line fill="none" stroke="#FFFFFF" stroke-linecap="round" stroke-linejoin="round" stroke-miterlimit="2.6131" stroke-width="1.9998" x1="46.071" x2="49.871" y1="66.514" y2="66.514"/><line fill="none" stroke="#FFFFFF" stroke-linecap="round" stroke-linejoin="round" stroke-miterlimit="2.6131" stroke-width="1.9998" x1="36.305" x2="57.738" y1="31.987" y2="31.987"/><line fill="none" stroke="#FFFFFF" stroke-linecap="round" stroke-linejoin="round" stroke-miterlimit="2.6131" stroke-width="1.9998" x1="55.921" x2="55.921" y1="31.987" y2="23.686"/><path d="   M55.921,23.686c0-0.451-0.37-0.82-0.82-0.82" fill="none" stroke="#FFFFFF" stroke-linecap="round" stroke-linejoin="round" stroke-miterlimit="2.6131" stroke-width="1.9998"/><line fill="none" stroke="#FFFFFF" stroke-linecap="round" stroke-linejoin="round" stroke-miterlimit="2.6131" stroke-width="1.9998" x1="55.101" x2="38.94" y1="22.866" y2="22.866"/><path d="   M38.94,22.866c-0.45,0-0.82,0.369-0.82,0.82" fill="none" stroke="#FFFFFF" stroke-linecap="round" stroke-linejoin="round" stroke-miterlimit="2.6131" stroke-width="1.9998"/><line fill="none" stroke="#FFFFFF" stroke-linecap="round" stroke-linejoin="round" stroke-miterlimit="2.6131" stroke-width="1.9998" x1="38.12" x2="38.12" y1="23.686" y2="31.987"/><line fill="none" stroke="#FFFFFF" stroke-linecap="round" stroke-linejoin="round" stroke-miterlimit="2.6131" stroke-width="1.9998" x1="41.124" x2="52.918" y1="26.021" y2="26.021"/><line fill="none" stroke="#FFFFFF" stroke-linecap="round" stroke-linejoin="round" stroke-miterlimit="2.6131" stroke-width="1.9998" x1="41.124" x2="52.918" y1="29.034" y2="29.034"/></g></svg>