<?xml version="1.0" ?><!DOCTYPE svg  PUBLIC '-//W3C//DTD SVG 1.1//EN'  'http://www.w3.org/Graphics/SVG/1.1/DTD/svg11.dtd'><svg enable-background="new 0 0 96 96" height="96px" id="Layer_1" version="1.1" viewBox="0 0 96 96" width="96px" xml:space="preserve" xmlns="http://www.w3.org/2000/svg" xmlns:xlink="http://www.w3.org/1999/xlink"><g><path clip-rule="evenodd" d="M48,94.871C22.114,94.871,1.128,73.887,1.128,48   C1.128,22.114,22.114,1.128,48,1.128c25.887,0,46.871,20.985,46.871,46.872C94.871,73.887,73.887,94.871,48,94.871" fill="#4FA7A0" fill-rule="evenodd"/><path clip-rule="evenodd" d="M71.203,20.02l23.446,23.41   c2.835,29.326-22.007,54.055-51.231,51.219L25.581,76.764c0.616,0.457,1.376,0.729,2.193,0.729h40.451   c2.032,0,3.706-1.674,3.706-3.705V22.214L71.203,20.02z" fill="#38817B" fill-rule="evenodd"/><path d="   M40.562,18.424H68.68c2.038,0,3.705,1.677,3.705,3.706v51.572c0,2.033-1.674,3.705-3.705,3.705H28.229   c-2.029,0-3.705-1.666-3.705-3.705V33.264L40.562,18.424z" fill="none" stroke="#FFFFFF" stroke-linecap="round" stroke-linejoin="round" stroke-miterlimit="22.9256" stroke-width="1.9998"/><path d="M41.3,18.424v13.682   c0,1.085-0.899,1.984-1.984,1.984H24.523" fill="none" stroke="#FFFFFF" stroke-miterlimit="22.9256" stroke-width="1.9998"/><path d="M49.42,24.715h15.476   c0.528,0,0.962,0.432,0.962,0.961v8.127c0,0.529-0.434,0.961-0.962,0.961H49.42c-0.53,0-0.962-0.433-0.962-0.961v-8.127   C48.458,25.147,48.89,24.715,49.42,24.715z" fill="none" stroke="#FFFFFF" stroke-miterlimit="22.9256" stroke-width="2.001"/><line fill="none" stroke="#FFFFFF" stroke-linecap="round" stroke-linejoin="round" stroke-miterlimit="22.9256" stroke-width="1.9998" x1="30.375" x2="65.941" y1="43.39" y2="43.39"/><line fill="none" stroke="#FFFFFF" stroke-linecap="round" stroke-linejoin="round" stroke-miterlimit="22.9256" stroke-width="1.9998" x1="30.375" x2="45.594" y1="52.191" y2="52.191"/><line fill="none" stroke="#FFFFFF" stroke-linecap="round" stroke-linejoin="round" stroke-miterlimit="22.9256" stroke-width="1.9998" x1="30.375" x2="44.439" y1="60.99" y2="60.99"/><line fill="none" stroke="#FFFFFF" stroke-linecap="round" stroke-linejoin="round" stroke-miterlimit="22.9256" stroke-width="1.9998" x1="30.375" x2="41.452" y1="69.791" y2="69.791"/><polygon fill="none" points="   57.383,47.534 56.047,48.822 54.302,48.189 53.605,49.91 51.754,50.041 51.816,51.895 50.179,52.768 50.99,54.438 49.85,55.9    51.27,57.096 50.822,58.896 52.605,59.41 52.93,61.238 54.769,60.98 55.808,62.52 57.383,61.537 58.957,62.52 59.997,60.98    61.835,61.238 62.159,59.41 63.943,58.896 63.495,57.096 64.916,55.9 63.775,54.438 64.587,52.768 62.949,51.896 63.012,50.041    61.16,49.91 60.464,48.189 58.719,48.822  " stroke="#FFFFFF" stroke-linecap="round" stroke-linejoin="round" stroke-miterlimit="22.9256" stroke-width="1.9998"/><polygon fill="none" points="   58.806,62.424 57.082,66.066 59.822,71.861 62.518,68.266 67.484,68.24 63.172,59.119 62.159,59.41 61.835,61.238 59.997,60.98    58.957,62.52  " stroke="#FFFFFF" stroke-linecap="round" stroke-linejoin="round" stroke-miterlimit="22.9256" stroke-width="1.9998"/><polygon fill="none" points="   58.806,62.424 54.343,71.861 51.646,68.266 46.681,68.24 51.065,58.967 52.605,59.41 52.93,61.238 54.769,60.98 55.808,62.52    57.383,61.537  " stroke="#FFFFFF" stroke-linecap="round" stroke-linejoin="round" stroke-miterlimit="22.9256" stroke-width="1.9998"/></g></svg>