<?xml version="1.0" ?><!DOCTYPE svg  PUBLIC '-//W3C//DTD SVG 1.1//EN'  'http://www.w3.org/Graphics/SVG/1.1/DTD/svg11.dtd'><svg enable-background="new 0 0 96 96" height="96px" id="Layer_1" version="1.1" viewBox="0 0 96 96" width="96px" xml:space="preserve" xmlns="http://www.w3.org/2000/svg" xmlns:xlink="http://www.w3.org/1999/xlink"><g><path clip-rule="evenodd" d="M48,94.871C22.114,94.871,1.129,73.887,1.129,48   C1.129,22.114,22.114,1.129,48,1.129c25.887,0,46.871,20.985,46.871,46.871C94.871,73.887,73.887,94.871,48,94.871" fill="#50A7A0" fill-rule="evenodd"/><path clip-rule="evenodd" d="M94.224,55.788L77.336,38.937l-0.107-0.126l4.16,7.172   c0.493,0.288,0.938,0.579,1.338,0.884c0.403,0.309,0.768,0.637,1.096,0.995c0.337,0.369,0.625,0.759,0.869,1.178   c0.244,0.418,0.447,0.871,0.615,1.369c0.166,0.493,0.301,1.035,0.408,1.637c0.108,0.603,0.189,1.243,0.246,1.933   c0.053,0.649,0.09,1.399,0.115,2.252c0.023,0.812,0.033,1.711,0.035,2.701v0.5l0.002,0.75h-0.748h-0.499h-2.278h-0.434h-0.252   c-0.013,0.342-0.053,0.68-0.119,1.009c-0.081,0.414-0.205,0.819-0.366,1.209c-0.163,0.394-0.363,0.768-0.597,1.117   c-0.234,0.352-0.503,0.679-0.799,0.976l-0.354,0.354l-0.531,0.532l-0.089-0.09c-0.081,0.054-0.163,0.106-0.247,0.157   c-0.281,0.171-0.576,0.32-0.879,0.445c-0.389,0.161-0.793,0.285-1.207,0.368c-0.408,0.08-0.827,0.123-1.253,0.123   s-0.846-0.043-1.254-0.123c-0.413-0.082-0.819-0.206-1.208-0.367c-0.397-0.164-0.771-0.363-1.115-0.593l-0.003-0.003   c-0.358-0.239-0.686-0.507-0.978-0.798l-0.002-0.002l-0.354-0.354l-0.529-0.53l0.09-0.091c-0.053-0.08-0.105-0.162-0.156-0.246   c-0.17-0.282-0.32-0.576-0.445-0.879c-0.16-0.389-0.285-0.794-0.367-1.207c-0.064-0.328-0.105-0.663-0.119-1.003H68.77h-0.434   h-7.194h-0.5h-0.282h-0.468h-0.282h-0.5H43.414H42.98h-0.252c-0.013,0.34-0.054,0.675-0.118,1.003   c-0.082,0.413-0.207,0.818-0.367,1.209c-0.163,0.393-0.363,0.768-0.597,1.117c-0.234,0.352-0.504,0.68-0.799,0.976v0.003   l-0.002,0.002h-0.003c-0.296,0.295-0.624,0.564-0.976,0.799c-0.35,0.232-0.724,0.434-1.117,0.597   c-0.391,0.16-0.795,0.285-1.209,0.367c-0.408,0.08-0.828,0.123-1.254,0.123c-0.425,0-0.845-0.043-1.253-0.123   c-0.413-0.083-0.817-0.207-1.207-0.368c-0.191-0.079-0.379-0.168-0.562-0.265l27.496,27.486   C78.011,88.242,91.22,73.744,94.224,55.788" fill="#36807A" fill-rule="evenodd"/><line fill="none" stroke="#FFFFFF" stroke-linecap="round" stroke-linejoin="round" stroke-miterlimit="2.6131" stroke-width="1.9998" x1="69.193" x2="60.837" y1="59.937" y2="59.937"/><path d="   M60.837,59.937c-0.392,0-0.721-0.325-0.721-0.721" fill="none" stroke="#FFFFFF" stroke-linecap="round" stroke-linejoin="round" stroke-miterlimit="2.6131" stroke-width="1.9998"/><line fill="none" stroke="#FFFFFF" stroke-linecap="round" stroke-linejoin="round" stroke-miterlimit="2.6131" stroke-width="1.9998" x1="60.116" x2="60.116" y1="59.216" y2="33.206"/><path d="   M60.116,33.206c0-0.396,0.324-0.72,0.721-0.72" fill="none" stroke="#FFFFFF" stroke-linecap="round" stroke-linejoin="round" stroke-miterlimit="2.6131" stroke-width="1.9998"/><line fill="none" stroke="#FFFFFF" stroke-linecap="round" stroke-linejoin="round" stroke-miterlimit="2.6131" stroke-width="1.9998" x1="60.837" x2="70.55" y1="32.486" y2="32.486"/><path d="   M70.55,32.486c2.663,0,4.016,2.273,5.204,4.321" fill="none" stroke="#FFFFFF" stroke-linecap="round" stroke-linejoin="round" stroke-miterlimit="2.6131" stroke-width="1.9998"/><line fill="none" stroke="#FFFFFF" stroke-linecap="round" stroke-linejoin="round" stroke-miterlimit="2.6131" stroke-width="1.9998" x1="75.754" x2="81.183" y1="36.808" y2="46.169"/><path d="   M81.183,46.169c4.089,2.359,4.659,4.807,4.659,13.047c0,0.391-0.382,0.716-0.769,0.716" fill="none" stroke="#FFFFFF" stroke-linecap="round" stroke-linejoin="round" stroke-miterlimit="2.6131" stroke-width="1.9998"/><line fill="none" stroke="#FFFFFF" stroke-linecap="round" stroke-linejoin="round" stroke-miterlimit="2.6131" stroke-width="1.9998" x1="85.073" x2="81.728" y1="59.932" y2="59.932"/><line fill="none" stroke="#FFFFFF" stroke-linecap="round" stroke-linejoin="round" stroke-miterlimit="2.6131" stroke-width="1.9998" x1="63.998" x2="68.285" y1="49.026" y2="49.026"/><polyline fill="none" points="   63.189,35.252 63.187,44.826 72.248,44.826  " stroke="#FFFFFF" stroke-linecap="round" stroke-linejoin="round" stroke-miterlimit="2.6131" stroke-width="1.9998"/><path d="   M72.248,44.826c1.217,0,2.736-0.598,3.39-1.222" fill="none" stroke="#FFFFFF" stroke-linecap="round" stroke-linejoin="round" stroke-miterlimit="2.6131" stroke-width="1.9998"/><line fill="none" stroke="#FFFFFF" stroke-linecap="round" stroke-linejoin="round" stroke-miterlimit="2.6131" stroke-width="1.9998" x1="75.638" x2="72.293" y1="43.604" y2="37.709"/><path d="   M72.166,37.526c-0.763-1.014-1.786-2.274-3.416-2.274" fill="none" stroke="#FFFFFF" stroke-linecap="round" stroke-linejoin="round" stroke-miterlimit="2.6131" stroke-width="1.9998"/><line fill="none" stroke="#FFFFFF" stroke-linecap="round" stroke-linejoin="round" stroke-miterlimit="2.6131" stroke-width="1.9998" x1="68.774" x2="63.314" y1="35.255" y2="35.252"/><polyline fill="none" points="   60.084,50.931 25.171,50.931 25.171,30.374  " stroke="#FFFFFF" stroke-linecap="round" stroke-linejoin="round" stroke-miterlimit="2.6131" stroke-width="1.9998"/><path d="   M25.171,30.374c0-0.278,0.227-0.505,0.504-0.505" fill="none" stroke="#FFFFFF" stroke-linecap="round" stroke-linejoin="round" stroke-miterlimit="2.6131" stroke-width="1.9998"/><line fill="none" stroke="#FFFFFF" stroke-linecap="round" stroke-linejoin="round" stroke-miterlimit="2.6131" stroke-width="1.9998" x1="25.675" x2="59.58" y1="29.869" y2="29.869"/><path d="   M59.58,29.869c0.277,0,0.504,0.227,0.504,0.505" fill="none" stroke="#FFFFFF" stroke-linecap="round" stroke-linejoin="round" stroke-miterlimit="2.6131" stroke-width="1.9998"/><line fill="none" stroke="#FFFFFF" stroke-linecap="round" stroke-linejoin="round" stroke-miterlimit="2.6131" stroke-width="1.9998" x1="60.084" x2="60.084" y1="30.374" y2="50.931"/><polyline fill="none" points="   29.973,59.937 25.17,59.937 25.17,50.933 60.085,50.933 60.085,59.937 42.648,59.937  " stroke="#FFFFFF" stroke-linecap="round" stroke-linejoin="round" stroke-miterlimit="2.6131" stroke-width="1.9998"/><line fill="none" stroke="#FFFFFF" stroke-linecap="round" stroke-linejoin="round" stroke-miterlimit="2.6131" stroke-width="1.9998" x1="43.997" x2="57.229" y1="55.435" y2="55.435"/><path d="   M36.263,53.741c3.421,0,6.195,2.773,6.195,6.195s-2.774,6.195-6.195,6.195c-3.422,0-6.195-2.773-6.195-6.195   S32.841,53.741,36.263,53.741" fill="none" stroke="#FFFFFF" stroke-linecap="round" stroke-linejoin="round" stroke-miterlimit="2.6131" stroke-width="1.9998"/><path d="   M36.263,57.073c1.582,0,2.863,1.282,2.863,2.864c0,1.58-1.281,2.862-2.863,2.862c-1.581,0-2.863-1.282-2.863-2.862   C33.399,58.355,34.682,57.073,36.263,57.073" fill="none" stroke="#FFFFFF" stroke-linecap="round" stroke-linejoin="round" stroke-miterlimit="2.6131" stroke-width="1.9998"/><path d="   M75.438,53.741c3.422,0,6.195,2.773,6.195,6.195s-2.773,6.195-6.195,6.195s-6.195-2.773-6.195-6.195S72.016,53.741,75.438,53.741" fill="none" stroke="#FFFFFF" stroke-linecap="round" stroke-linejoin="round" stroke-miterlimit="2.6131" stroke-width="1.9998"/><path d="   M75.438,57.36c1.422,0,2.576,1.154,2.576,2.576c0,1.423-1.154,2.576-2.576,2.576s-2.576-1.153-2.576-2.576   C72.861,58.515,74.016,57.36,75.438,57.36" fill="none" stroke="#FFFFFF" stroke-linecap="round" stroke-linejoin="round" stroke-miterlimit="2.6131" stroke-width="1.9998"/><line fill="none" stroke="#FFFFFF" stroke-linecap="round" stroke-linejoin="round" stroke-miterlimit="2.6131" stroke-width="1.9998" x1="21.989" x2="10.159" y1="30.045" y2="30.045"/><line fill="none" stroke="#FFFFFF" stroke-linecap="round" stroke-linejoin="round" stroke-miterlimit="2.6131" stroke-width="1.9998" x1="21.989" x2="11.6" y1="34.269" y2="34.269"/><line fill="none" stroke="#FFFFFF" stroke-linecap="round" stroke-linejoin="round" stroke-miterlimit="2.6131" stroke-width="1.9998" x1="21.989" x2="13.041" y1="38.489" y2="38.489"/><line fill="none" stroke="#FFFFFF" stroke-linecap="round" stroke-linejoin="round" stroke-miterlimit="2.6131" stroke-width="1.9998" x1="21.989" x2="14.481" y1="42.71" y2="42.71"/><line fill="none" stroke="#FFFFFF" stroke-linecap="round" stroke-linejoin="round" stroke-miterlimit="2.6131" stroke-width="1.9998" x1="21.989" x2="15.923" y1="46.93" y2="46.93"/><line fill="none" stroke="#FFFFFF" stroke-linecap="round" stroke-linejoin="round" stroke-miterlimit="2.6131" stroke-width="1.9998" x1="21.989" x2="17.363" y1="51.15" y2="51.15"/><line fill="none" stroke="#FFFFFF" stroke-linecap="round" stroke-linejoin="round" stroke-miterlimit="2.6131" stroke-width="1.9998" x1="21.989" x2="18.805" y1="55.372" y2="55.372"/><line fill="none" stroke="#FFFFFF" stroke-linecap="round" stroke-linejoin="round" stroke-miterlimit="2.6131" stroke-width="1.9998" x1="21.989" x2="20.246" y1="59.592" y2="59.592"/><line fill="none" stroke="#FFFFFF" stroke-linecap="round" stroke-linejoin="round" stroke-miterlimit="2.6131" stroke-width="1.9998" x1="27.247" x2="29.171" y1="55.435" y2="55.435"/></g></svg>